<svg xmlns="http://www.w3.org/2000/svg" xmlns:xlink="http://www.w3.org/1999/xlink" viewBox="0 0 137.96 98.16"><defs><clipPath id="fa624f58-9a8e-4ccb-8f8c-978c16e23d04"><rect width="137.96" height="98.16" style="fill:none"/></clipPath></defs><g id="ecbaaa49-64d5-4838-83a4-3f134fceec28" data-name="Layer 2"><g id="ae27ac68-959b-4e2e-96fa-20d357bf90f9" data-name="Ebene 1"><g style="clip-path:url(#fa624f58-9a8e-4ccb-8f8c-978c16e23d04)"><path d="M0,67S0,98.16,31.18,98.16H126s12,0,12-12V0H12S0,0,0,12Z" style="fill:#6f392c"/><path d="M33.36,30c0,1.95-.57,2.88-2.38,2.88S28.61,32,28.61,30V16.84c0-1.95.58-2.88,2.37-2.88s2.38.93,2.38,2.88Zm4.47.11V16.73c0-3.67-2.17-6.66-6.85-6.66s-6.83,3-6.83,6.66V30.12c0,3.67,2.16,6.66,6.83,6.66s6.85-3,6.85-6.66M20,27.13H15.58v3.14c0,1.69-.54,2.62-2.16,2.62C11.62,32.89,11,32,11,30V16.84c0-1.95.58-2.88,2.38-2.88,1.15,0,2.16.93,2.16,3.13v2H20V17.2c0-3.89-2.16-7.13-6.62-7.13-4.68,0-6.84,3-6.84,6.66V30.12c0,3.67,2.16,6.66,6.84,6.66,4.46,0,6.62-3,6.62-6.66Zm35.52-16.7h-4V25.3h-.07L46,10.43H41.88v26h4V20.19H46l5.69,16.23h3.89Zm26.42,0H69.52v26H74V24.9h6V21H74V14.32h8Zm16,22.1H90V24.9H95.8V21H90V14.32h7.49V10.43h-12v26H98ZM111,18.1c0,3.09-.9,4-3.31,4H106.1v-8h1.58c2.41,0,3.31.9,3.31,4m4.47,0c0-5.55-2.56-7.67-7.56-7.67h-6.27v26h4.47V25.77a21.88,21.88,0,0,0,2.3-.11l3.17,10.76h4.54l-3.78-11.77c1.51-.68,3.13-2.38,3.13-6.55m16.72,14.43h-8V24.9h5.76V21h-5.76V14.32h7.49V10.43H119.72v26h12.46ZM64.77,10.43H60.31v26h4.46Z" style="fill:#fff"/></g></g></g></svg>